<svg width="56" height="18" viewBox="0 0 56 18" fill="none" xmlns="http://www.w3.org/2000/svg">
<g clip-path="url(#clip0_12_28)">
<path d="M48.8225 7.5L47 1.5L45.1775 7.5H39.5L44.135 10.8075L42.3725 16.5L47 12.9825L51.635 16.5L49.8725 10.8075L54.5 7.5H48.8225Z" fill="#F29D38"/>
</g>
<g clip-path="url(#clip1_12_28)">
<path d="M30.8225 7.5L29 1.5L27.1775 7.5H21.5L26.135 10.8075L24.3725 16.5L29 12.9825L33.635 16.5L31.8725 10.8075L36.5 7.5H30.8225Z" fill="#F29D38"/>
</g>
<g clip-path="url(#clip2_12_28)">
<path d="M10.8225 7.5L9 1.5L7.1775 7.5H1.5L6.135 10.8075L4.3725 16.5L9 12.9825L13.635 16.5L11.8725 10.8075L16.5 7.5H10.8225Z" fill="#F29D38"/>
</g>
<defs>
<clipPath id="clip0_12_28">
<rect width="18" height="18" fill="white" transform="translate(38)"/>
</clipPath>
<clipPath id="clip1_12_28">
<rect width="18" height="18" fill="white" transform="translate(20)"/>
</clipPath>
<clipPath id="clip2_12_28">
<rect width="18" height="18" fill="white"/>
</clipPath>
</defs>
</svg>
