<svg width="52" height="52" viewBox="0 0 52 52" fill="none" xmlns="http://www.w3.org/2000/svg">
<g filter="url(#filter0_d_56_59)">
<rect width="48" height="48" rx="4" fill="#A8886A" fill-opacity="0.5" shape-rendering="crispEdges"/>
</g>
<path d="M31.4584 26.0974C32.0335 25.5439 32.394 25.2188 33.1804 25.2188C33.8734 25.2188 34.5034 25.4854 35.026 25.8341C33.815 30.8021 29.1892 34.5 23.6685 34.5C18.3812 34.5 13.9152 31.1081 12.4825 26.4563C13.445 26.967 14.6864 27.4688 15.8892 27.4688C16.8377 27.4688 17.7967 27.1571 18.6017 26.796C19.1762 26.5345 19.7306 26.2337 20.2607 25.896C20.6704 26.3875 21.1893 26.7839 21.7791 27.0561C22.3689 27.3284 23.0146 27.4694 23.6685 27.4688C24.5459 27.4688 25.3625 27.2201 26.0474 26.7915C26.717 27.1706 27.5465 27.4688 28.502 27.4688C30.0339 27.4688 30.8424 26.6914 31.4339 26.121L31.4584 26.0974Z" fill="white"/>
<path d="M21.0435 23.25C21.0435 22.5787 21.3201 21.9348 21.8124 21.4601C22.3047 20.9854 22.9724 20.7188 23.6685 20.7188C24.3647 20.7188 25.0324 20.9854 25.5247 21.4601C26.017 21.9348 26.2935 22.5787 26.2935 23.25C26.2935 23.9213 26.017 24.5652 25.5247 25.0399C25.0324 25.5146 24.3647 25.7812 23.6685 25.7812C22.9724 25.7812 22.3047 25.5146 21.8124 25.0399C21.3201 24.5652 21.0435 23.9213 21.0435 23.25Z" fill="white"/>
<path fill-rule="evenodd" clip-rule="evenodd" d="M23.6686 19.0313C22.9934 19.0312 22.3274 19.1817 21.7226 19.4712C21.1179 19.7607 20.5908 20.1812 20.1827 20.6998C19.7746 21.2185 19.4965 21.8211 19.3701 22.4607C19.2438 23.1002 19.2727 23.7593 19.4546 24.3863C19.0124 24.6743 18.4571 25.0005 17.8644 25.266C17.1597 25.581 16.4714 25.7813 15.8892 25.7813C15.0026 25.7813 13.9129 25.3234 12.9574 24.7755C12.6074 24.5741 12.2947 24.3728 12.0427 24.1995C11.886 22.441 12.1617 20.6717 12.8473 19.0352C13.5328 17.3987 14.609 15.9412 15.9884 14.781C16.0071 14.8035 16.0281 14.826 16.0502 14.8463L17.2169 15.9713C17.3828 16.1203 17.6021 16.2014 17.8288 16.1976C18.0555 16.1937 18.2718 16.1052 18.4321 15.9506C18.5924 15.796 18.6843 15.5874 18.6883 15.3689C18.6923 15.1503 18.6081 14.9387 18.4536 14.7788L17.3989 13.7606C19.2711 12.6075 21.447 11.9965 23.6686 12C25.3324 11.9982 26.9772 12.3404 28.4923 13.0035C30.0073 13.6666 31.3573 14.6353 32.4512 15.8441C32.4276 15.8629 32.405 15.8828 32.3836 15.9038L31.2169 17.0288C31.0623 17.1887 30.9782 17.4003 30.9822 17.6189C30.9862 17.8374 31.078 18.046 31.2383 18.2006C31.3986 18.3552 31.6149 18.4437 31.8416 18.4476C32.0683 18.4514 32.2877 18.3703 32.4536 18.2213L33.5094 17.2043C34.8554 19.2358 35.4855 21.6319 35.3061 24.0364C34.6484 23.7095 33.9202 23.5364 33.1804 23.5313C31.6474 23.5313 30.8401 24.3086 30.2474 24.879L30.2229 24.9026C29.6477 25.4561 29.2872 25.7813 28.5021 25.7813C28.0937 25.7813 27.7052 25.689 27.3447 25.5383C27.7713 24.9011 28.0119 24.1649 28.0412 23.4071C28.0704 22.6492 27.8873 21.8978 27.5111 21.2318C27.1348 20.5658 26.5794 20.01 25.9032 19.6227C25.227 19.2355 24.455 19.0312 23.6686 19.0313ZM28.8602 14.7C28.9521 14.7665 29.0296 14.8498 29.0881 14.9451C29.1467 15.0405 29.1852 15.146 29.2014 15.2557C29.2177 15.3654 29.2114 15.4771 29.1828 15.5844C29.1543 15.6918 29.1042 15.7926 29.0352 15.8813L27.2852 18.1313C27.2163 18.2199 27.1299 18.2946 27.031 18.351C26.9322 18.4075 26.8227 18.4446 26.709 18.4603C26.5952 18.476 26.4794 18.4699 26.3681 18.4424C26.2568 18.4149 26.1521 18.3665 26.0602 18.3C25.9683 18.2335 25.8908 18.1502 25.8323 18.0549C25.7738 17.9596 25.7353 17.854 25.719 17.7443C25.7028 17.6347 25.7091 17.5229 25.7376 17.4156C25.7661 17.3083 25.8163 17.2074 25.8852 17.1188L27.6352 14.8688C27.7745 14.6897 27.9817 14.5714 28.2115 14.5397C28.4412 14.5081 28.6746 14.5657 28.8602 14.7ZM21.8836 13.6538C21.7197 13.812 21.6277 14.0264 21.6277 14.25C21.6277 14.4736 21.7197 14.6881 21.8836 14.8463L23.0502 15.9713C23.1303 16.0542 23.2269 16.1207 23.3343 16.1668C23.4416 16.2129 23.5575 16.2377 23.6749 16.2397C23.7924 16.2417 23.9091 16.2208 24.0181 16.1784C24.127 16.136 24.226 16.0728 24.3091 15.9927C24.3922 15.9126 24.4577 15.8171 24.5017 15.7121C24.5457 15.607 24.5673 15.4945 24.5652 15.3812C24.5632 15.2679 24.5375 15.1562 24.4896 15.0527C24.4418 14.9492 24.3729 14.856 24.2869 14.7788L23.1202 13.6538C22.9562 13.4958 22.7338 13.407 22.5019 13.407C22.27 13.407 22.0476 13.4958 21.8836 13.6538ZM19.4802 18.255C19.5404 18.471 19.687 18.655 19.8878 18.7668C20.0886 18.8786 20.3272 18.909 20.5512 18.8513L22.1449 18.4395C22.2594 18.414 22.3673 18.3666 22.4624 18.3C22.5574 18.2334 22.6376 18.1491 22.6981 18.052C22.7586 17.9549 22.7982 17.847 22.8146 17.7348C22.8309 17.6226 22.8237 17.5084 22.7933 17.399C22.7629 17.2896 22.7099 17.1872 22.6376 17.0979C22.5653 17.0086 22.475 16.9343 22.3723 16.8794C22.2695 16.8245 22.1564 16.7901 22.0395 16.7782C21.9227 16.7664 21.8046 16.7774 21.6922 16.8105L20.0986 17.2223C19.8746 17.2803 19.6837 17.4216 19.5678 17.6153C19.4518 17.8089 19.4203 18.039 19.4802 18.255ZM29.2114 22.2803C29.4431 22.2698 29.661 22.171 29.8173 22.0056C29.9735 21.8402 30.0552 21.6217 30.0444 21.3983L29.9686 19.8075C29.9657 19.6952 29.9396 19.5845 29.8918 19.4821C29.8439 19.3796 29.7754 19.2873 29.6901 19.2108C29.6048 19.1342 29.5045 19.0748 29.3951 19.0361C29.2857 18.9974 29.1694 18.9802 29.053 18.9855C28.9366 18.9907 28.8224 19.0183 28.7172 19.0667C28.6121 19.115 28.5179 19.1832 28.4404 19.2671C28.3629 19.351 28.3036 19.449 28.2659 19.5553C28.2282 19.6616 28.2129 19.7742 28.2209 19.8863L28.2979 21.4759C28.3088 21.6993 28.4112 21.9095 28.5828 22.0601C28.7543 22.2107 28.9808 22.2895 29.2126 22.2791L29.2114 22.2803ZM31.7664 22.7483C31.8424 22.8314 31.9347 22.8993 32.038 22.948C32.1412 22.9967 32.2534 23.0254 32.3682 23.0323C32.4829 23.0392 32.5979 23.0242 32.7067 22.9882C32.8154 22.9522 32.9157 22.8959 33.0019 22.8225L34.3704 21.7279C34.4572 21.6548 34.5282 21.566 34.5794 21.4664C34.6305 21.3668 34.6607 21.2585 34.6683 21.1476C34.6759 21.0367 34.6607 20.9255 34.6235 20.8203C34.5864 20.7151 34.5281 20.618 34.452 20.5346C34.3759 20.4512 34.2834 20.3831 34.1799 20.3343C34.0764 20.2854 33.964 20.2568 33.849 20.2499C33.7339 20.2431 33.6187 20.2582 33.5097 20.2945C33.4008 20.3307 33.3004 20.3874 33.2142 20.4611L31.8457 21.5558C31.7593 21.6289 31.6888 21.7178 31.638 21.8173C31.5873 21.9168 31.5574 22.025 31.55 22.1356C31.5426 22.2462 31.5579 22.3572 31.5951 22.4621C31.6322 22.5671 31.6904 22.665 31.7664 22.7483ZM16.5484 17.8208C16.4437 17.8666 16.3495 17.9318 16.271 18.0127C16.1925 18.0936 16.1313 18.1887 16.0908 18.2924C16.0504 18.3961 16.0316 18.5065 16.0354 18.6173C16.0393 18.728 16.0657 18.837 16.1132 18.9379L16.7969 20.3858C16.8419 20.4902 16.9082 20.5849 16.9919 20.6641C17.0757 20.7433 17.175 20.8055 17.2842 20.847C17.3933 20.8885 17.51 20.9083 17.6272 20.9054C17.7445 20.9026 17.86 20.877 17.9668 20.8302C18.0735 20.7834 18.1695 20.7164 18.2489 20.6332C18.3283 20.5499 18.3896 20.4521 18.429 20.3456C18.4684 20.2391 18.4852 20.126 18.4784 20.013C18.4716 19.9001 18.4413 19.7897 18.3894 19.6883L17.7069 18.2381C17.6108 18.0345 17.4347 17.8761 17.2175 17.7976C17.0002 17.7191 16.7596 17.7282 16.5484 17.8208ZM17.7687 22.0058C17.8617 22.0712 17.9404 22.1538 18.0003 22.2486C18.0601 22.3435 18.1 22.4488 18.1175 22.5586C18.1351 22.6683 18.13 22.7803 18.1026 22.8881C18.0752 22.996 18.0259 23.0976 17.9577 23.187L16.9836 24.4695C16.9167 24.5614 16.8315 24.6394 16.733 24.6992C16.6344 24.7589 16.5245 24.799 16.4097 24.8173C16.2949 24.8356 16.1774 24.8315 16.0642 24.8055C15.951 24.7794 15.8443 24.7318 15.7504 24.6655C15.6565 24.5992 15.5773 24.5155 15.5173 24.4193C15.4574 24.3232 15.418 24.2164 15.4013 24.1053C15.3847 23.9942 15.3912 23.8811 15.4205 23.7725C15.4498 23.6639 15.5013 23.562 15.5719 23.4728L16.5461 22.1903C16.683 22.0096 16.8887 21.8888 17.118 21.8544C17.3473 21.82 17.5814 21.8749 17.7687 22.0069V22.0058ZM13.8254 18.9638C13.7106 18.9698 13.5982 18.9976 13.4946 19.0455C13.391 19.0935 13.2982 19.1606 13.2215 19.2431C13.1448 19.3257 13.0857 19.422 13.0476 19.5265C13.0095 19.6311 12.9931 19.7419 12.9994 19.8525L13.0916 21.441C13.1044 21.6645 13.2088 21.8739 13.3817 22.0232C13.5547 22.1724 13.782 22.2493 14.0138 22.237C14.2456 22.2246 14.4627 22.1239 14.6175 21.9571C14.7723 21.7904 14.8521 21.5711 14.8392 21.3476L14.7459 19.7591C14.7329 19.5358 14.6286 19.3266 14.4558 19.1775C14.2829 19.0284 14.057 18.9515 13.8254 18.9638Z" fill="white"/>
<defs>
<filter id="filter0_d_56_59" x="0" y="0" width="52" height="52" filterUnits="userSpaceOnUse" color-interpolation-filters="sRGB">
<feFlood flood-opacity="0" result="BackgroundImageFix"/>
<feColorMatrix in="SourceAlpha" type="matrix" values="0 0 0 0 0 0 0 0 0 0 0 0 0 0 0 0 0 0 127 0" result="hardAlpha"/>
<feOffset dx="2" dy="2"/>
<feGaussianBlur stdDeviation="1"/>
<feComposite in2="hardAlpha" operator="out"/>
<feColorMatrix type="matrix" values="0 0 0 0 0 0 0 0 0 0 0 0 0 0 0 0 0 0 0.25 0"/>
<feBlend mode="normal" in2="BackgroundImageFix" result="effect1_dropShadow_56_59"/>
<feBlend mode="normal" in="SourceGraphic" in2="effect1_dropShadow_56_59" result="shape"/>
</filter>
</defs>
</svg>
