<svg width="52" height="52" viewBox="0 0 52 52" fill="none" xmlns="http://www.w3.org/2000/svg">
<g filter="url(#filter0_d_56_52)">
<rect width="48" height="48" rx="4" fill="#A8886A" fill-opacity="0.5" shape-rendering="crispEdges"/>
</g>
<path d="M24 27C25.6569 27 27 25.6569 27 24C27 22.3431 25.6569 21 24 21C22.3431 21 21 22.3431 21 24C21 25.6569 22.3431 27 24 27Z" stroke="white" stroke-width="1.5"/>
<path d="M26.5 19L28 17M31 19L32 18M24 17L23 16M22.5 19L21.134 19.366M19 17L18 16M18.792 21.144L18.207 19.856" stroke="white" stroke-width="1.5" stroke-linecap="round"/>
<path d="M24.5 34L24.534 34.75C24.67 34.7439 24.8017 34.701 24.9151 34.6258C25.0286 34.5505 25.1194 34.4459 25.1778 34.323C25.2363 34.2001 25.2602 34.0636 25.247 33.9281C25.2339 33.7926 25.1841 33.6633 25.103 33.554L24.5 34ZM33.627 26.717L33.14 27.287C33.2357 27.3685 33.3504 27.4246 33.4734 27.4503C33.5965 27.4759 33.724 27.4702 33.8443 27.4336C33.9646 27.3971 34.0737 27.3309 34.1617 27.2411C34.2498 27.1514 34.3138 27.041 34.348 26.92L33.627 26.717ZM30.584 28.623L29.981 29.069C30.0452 29.1557 30.1273 29.2275 30.2217 29.2795C30.3162 29.3315 30.4207 29.3626 30.5283 29.3706C30.6358 29.3786 30.7438 29.3632 30.8449 29.3257C30.9459 29.2881 31.0377 29.2292 31.114 29.153L30.584 28.623ZM30.685 28.521L31.215 29.051C31.2996 28.9666 31.3627 28.8632 31.3993 28.7495C31.4358 28.6357 31.4446 28.5149 31.425 28.397L30.685 28.521ZM26.619 31.291L26.394 32.006C26.5247 32.0471 26.6642 32.0516 26.7973 32.0189C26.9304 31.9863 27.0521 31.9179 27.149 31.821L26.619 31.291ZM26.804 31.106L27.334 31.636C27.461 31.509 27.5382 31.3407 27.5516 31.1615C27.565 30.9824 27.5137 30.8045 27.407 30.66L26.804 31.106ZM24 33.25C21.5467 33.25 19.194 32.2754 17.4593 30.5407C15.7246 28.806 14.75 26.4533 14.75 24H13.25C13.25 29.937 18.063 34.75 24 34.75V33.25ZM14.75 24C14.75 21.5467 15.7246 19.194 17.4593 17.4593C19.194 15.7246 21.5467 14.75 24 14.75V13.25C18.063 13.25 13.25 18.063 13.25 24H14.75ZM24 14.75C26.4533 14.75 28.806 15.7246 30.5407 17.4593C32.2754 19.194 33.25 21.5467 33.25 24H34.75C34.75 18.063 29.937 13.25 24 13.25V14.75ZM25.103 33.554C24.87 33.239 24.903 32.591 25.39 32.231L24.498 31.025C23.381 31.851 23.145 33.429 23.897 34.446L25.103 33.554ZM27.222 30.409C26.926 30.009 26.986 29.184 27.765 28.608L26.873 27.402C25.648 28.309 25.08 30.035 26.016 31.302L27.222 30.409ZM27.765 28.608C28.545 28.031 29.351 28.217 29.646 28.616L30.852 27.724C29.916 26.459 28.099 26.496 26.873 27.402L27.765 28.608ZM31.925 27.398C32.421 27.031 32.925 27.105 33.14 27.288L34.113 26.146C33.246 25.407 31.951 25.513 31.033 26.192L31.925 27.398ZM33.25 24C33.2509 24.8499 33.1348 25.6958 32.905 26.514L34.348 26.92C34.61 25.99 34.75 25.011 34.75 24H33.25ZM24.466 33.25C24.332 33.257 24.202 33.25 24 33.25V34.75C24.11 34.75 24.36 34.757 24.534 34.75L24.466 33.25ZM29.646 28.616L29.981 29.069L31.187 28.177L30.852 27.724L29.646 28.616ZM31.426 28.397C31.379 28.123 31.512 27.703 31.925 27.398L31.033 26.192C30.242 26.777 29.793 27.728 29.946 28.645L31.426 28.397ZM31.114 29.153L31.216 29.052L30.156 27.991L30.054 28.092L31.114 29.153ZM25.39 32.231C25.747 31.966 26.135 31.925 26.394 32.006L26.844 30.576C26.077 30.334 25.196 30.508 24.498 31.025L25.39 32.231ZM26.016 31.302L26.201 31.551L27.407 30.66L27.222 30.409L26.016 31.302ZM27.149 31.821L27.335 31.636L26.274 30.576L26.089 30.761L27.149 31.821Z" fill="white"/>
<path d="M14 25C14 25 16.2 27 18 27C19.212 27 20.606 26.092 21.387 25.5M28 27.5C27.5 27 26.471 26.639 26 26.224" stroke="white" stroke-width="1.5"/>
<path d="M28.65 20.977L28.716 22.389M32.678 22.085L31 23.563M17.665 24.641L18.5 23.5M15.683 22.35L15.604 20.938" stroke="white" stroke-width="1.5" stroke-linecap="round"/>
<defs>
<filter id="filter0_d_56_52" x="0" y="0" width="52" height="52" filterUnits="userSpaceOnUse" color-interpolation-filters="sRGB">
<feFlood flood-opacity="0" result="BackgroundImageFix"/>
<feColorMatrix in="SourceAlpha" type="matrix" values="0 0 0 0 0 0 0 0 0 0 0 0 0 0 0 0 0 0 127 0" result="hardAlpha"/>
<feOffset dx="2" dy="2"/>
<feGaussianBlur stdDeviation="1"/>
<feComposite in2="hardAlpha" operator="out"/>
<feColorMatrix type="matrix" values="0 0 0 0 0 0 0 0 0 0 0 0 0 0 0 0 0 0 0.25 0"/>
<feBlend mode="normal" in2="BackgroundImageFix" result="effect1_dropShadow_56_52"/>
<feBlend mode="normal" in="SourceGraphic" in2="effect1_dropShadow_56_52" result="shape"/>
</filter>
</defs>
</svg>
