<svg width="52" height="52" viewBox="0 0 52 52" fill="none" xmlns="http://www.w3.org/2000/svg">
<g filter="url(#filter0_d_55_37)">
<rect width="48" height="48" rx="4" fill="#A8886A" fill-opacity="0.5" shape-rendering="crispEdges"/>
</g>
<g clip-path="url(#clip0_55_37)">
<path d="M20.3504 23.25L23.0625 30.5L24.5 33.5L25.9375 30.5L28.6496 23.25" stroke="white" stroke-width="4" stroke-linecap="round" stroke-linejoin="round"/>
<path d="M22.1042 28H26.8958" stroke="white" stroke-width="4" stroke-linecap="round"/>
<path d="M24.5 13.5C21.625 13.5 20.6667 16.5 20.6667 16.5C20.6667 16.5 17.7917 17.5 17.7917 20C17.7917 22.5 20.1875 23.5 20.1875 23.5C20.1875 23.5 21.8646 22.5 24.5 22.5C27.1354 22.5 28.8125 23.5 28.8125 23.5C28.8125 23.5 31.2083 22.5 31.2083 20C31.2083 17.5 28.3333 16.5 28.3333 16.5C28.3333 16.5 27.375 13.5 24.5 13.5Z" stroke="white" stroke-width="4" stroke-linecap="round" stroke-linejoin="round"/>
</g>
<defs>
<filter id="filter0_d_55_37" x="0" y="0" width="52" height="52" filterUnits="userSpaceOnUse" color-interpolation-filters="sRGB">
<feFlood flood-opacity="0" result="BackgroundImageFix"/>
<feColorMatrix in="SourceAlpha" type="matrix" values="0 0 0 0 0 0 0 0 0 0 0 0 0 0 0 0 0 0 127 0" result="hardAlpha"/>
<feOffset dx="2" dy="2"/>
<feGaussianBlur stdDeviation="1"/>
<feComposite in2="hardAlpha" operator="out"/>
<feColorMatrix type="matrix" values="0 0 0 0 0 0 0 0 0 0 0 0 0 0 0 0 0 0 0.25 0"/>
<feBlend mode="normal" in2="BackgroundImageFix" result="effect1_dropShadow_55_37"/>
<feBlend mode="normal" in="SourceGraphic" in2="effect1_dropShadow_55_37" result="shape"/>
</filter>
<clipPath id="clip0_55_37">
<rect width="23" height="24" fill="white" transform="translate(13 12)"/>
</clipPath>
</defs>
</svg>
