<svg width="52" height="52" viewBox="0 0 52 52" fill="none" xmlns="http://www.w3.org/2000/svg">
<g filter="url(#filter0_d_56_67)">
<rect width="48" height="48" rx="4" fill="#A8886A" fill-opacity="0.5" shape-rendering="crispEdges"/>
</g>
<path d="M32.16 24.73C32.825 24.0659 33.3323 23.2607 33.6442 22.3742C33.9561 21.4876 34.0647 20.5422 33.9619 19.608C33.8592 18.6738 33.5477 17.7746 33.0506 16.977C32.5535 16.1794 31.8835 15.5037 31.09 15C29.08 13.67 26.39 13.66 24.36 14.97C22.6 16.1 21.63 17.86 21.46 19.68C21.33 21 20.83 22.23 19.91 23.15L19.88 23.18C18.72 24.34 18.72 26.11 19.81 27.19L20.8 28.18C21.3239 28.7036 22.0343 28.9977 22.775 28.9977C23.5157 28.9977 24.2261 28.7036 24.75 28.18C25.72 27.21 27 26.68 28.39 26.53C29.76 26.38 31.1 25.78 32.16 24.73ZM18.26 31.86C18.53 32.42 18.44 33.1 17.97 33.56C17.7664 33.7666 17.507 33.9093 17.2235 33.9707C16.94 34.032 16.6448 34.0092 16.374 33.9051C16.1033 33.8011 15.8688 33.6203 15.6993 33.3849C15.5299 33.1495 15.4328 32.8698 15.42 32.58C15.1302 32.5672 14.8505 32.4701 14.6151 32.3007C14.3797 32.1312 14.1989 31.8967 14.0948 31.626C13.9908 31.3552 13.968 31.06 14.0293 30.7765C14.0906 30.493 14.2334 30.2335 14.44 30.03C14.9 29.57 15.59 29.47 16.14 29.74L18.62 27.31C18.76 27.5 18.92 27.72 19.1 27.9L20.09 28.89C20.3 29.09 20.5 29.26 20.76 29.41L18.26 31.86Z" fill="white"/>
<defs>
<filter id="filter0_d_56_67" x="0" y="0" width="52" height="52" filterUnits="userSpaceOnUse" color-interpolation-filters="sRGB">
<feFlood flood-opacity="0" result="BackgroundImageFix"/>
<feColorMatrix in="SourceAlpha" type="matrix" values="0 0 0 0 0 0 0 0 0 0 0 0 0 0 0 0 0 0 127 0" result="hardAlpha"/>
<feOffset dx="2" dy="2"/>
<feGaussianBlur stdDeviation="1"/>
<feComposite in2="hardAlpha" operator="out"/>
<feColorMatrix type="matrix" values="0 0 0 0 0 0 0 0 0 0 0 0 0 0 0 0 0 0 0.25 0"/>
<feBlend mode="normal" in2="BackgroundImageFix" result="effect1_dropShadow_56_67"/>
<feBlend mode="normal" in="SourceGraphic" in2="effect1_dropShadow_56_67" result="shape"/>
</filter>
</defs>
</svg>
