<svg width="52" height="52" viewBox="0 0 52 52" fill="none" xmlns="http://www.w3.org/2000/svg">
<g filter="url(#filter0_d_56_53)">
<rect width="48" height="48" rx="4" fill="#A8886A" fill-opacity="0.5" shape-rendering="crispEdges"/>
</g>
<mask id="mask0_56_53" style="mask-type:luminance" maskUnits="userSpaceOnUse" x="14" y="8" width="20" height="29">
<path d="M19.3091 22.125L22.375 30.5833L24 34.0833L25.625 30.5833L28.6908 22.125" stroke="white" stroke-width="4" stroke-linecap="round" stroke-linejoin="round"/>
<path d="M21.2917 27.6667H26.7083" stroke="white" stroke-width="4" stroke-linecap="round"/>
<path d="M24 10.75C20.75 10.75 19.6667 14.25 19.6667 14.25C19.6667 14.25 16.4167 15.4167 16.4167 18.3333C16.4167 21.25 19.125 22.4167 19.125 22.4167C19.125 22.4167 21.0208 21.25 24 21.25C26.9792 21.25 28.875 22.4167 28.875 22.4167C28.875 22.4167 31.5833 21.25 31.5833 18.3333C31.5833 15.4167 28.3333 14.25 28.3333 14.25C28.3333 14.25 27.25 10.75 24 10.75Z" fill="white" stroke="white" stroke-width="4" stroke-linecap="round" stroke-linejoin="round"/>
</mask>
<g mask="url(#mask0_56_53)">
<path d="M11 9H37V37H11V9Z" fill="white"/>
</g>
<defs>
<filter id="filter0_d_56_53" x="0" y="0" width="52" height="52" filterUnits="userSpaceOnUse" color-interpolation-filters="sRGB">
<feFlood flood-opacity="0" result="BackgroundImageFix"/>
<feColorMatrix in="SourceAlpha" type="matrix" values="0 0 0 0 0 0 0 0 0 0 0 0 0 0 0 0 0 0 127 0" result="hardAlpha"/>
<feOffset dx="2" dy="2"/>
<feGaussianBlur stdDeviation="1"/>
<feComposite in2="hardAlpha" operator="out"/>
<feColorMatrix type="matrix" values="0 0 0 0 0 0 0 0 0 0 0 0 0 0 0 0 0 0 0.25 0"/>
<feBlend mode="normal" in2="BackgroundImageFix" result="effect1_dropShadow_56_53"/>
<feBlend mode="normal" in="SourceGraphic" in2="effect1_dropShadow_56_53" result="shape"/>
</filter>
</defs>
</svg>
