<svg width="51" height="51" viewBox="0 0 51 51" fill="none" xmlns="http://www.w3.org/2000/svg">
<circle cx="25.5" cy="25.5" r="25.5" fill="white"/>
<path d="M25.5 43L24.6692 42.211C24.15 41.7726 12 29.674 12 22.3973C12 16.0849 18.0231 11 25.5 11C32.9769 11 39 16.0849 39 22.3973C39 29.674 26.85 41.7726 26.3308 42.2986L25.5 43ZM25.5 12.7534C19.1654 12.7534 14.0769 17.0493 14.0769 22.3973C14.0769 28.0082 22.8 37.4767 25.5 40.2822C28.2 37.4767 36.9231 28.0082 36.9231 22.3973C36.9231 17.0493 31.8346 12.7534 25.5 12.7534Z" fill="black"/>
<path d="M26 27C23.2 27 21 24.8 21 22C21 19.2 23.2 17 26 17C28.8 17 31 19.2 31 22C31 24.8 28.8 27 26 27ZM26 19C24.3 19 23 20.3 23 22C23 23.7 24.3 25 26 25C27.7 25 29 23.7 29 22C29 20.3 27.7 19 26 19Z" fill="black"/>
</svg>
