<svg width="51" height="51" viewBox="0 0 51 51" fill="none" xmlns="http://www.w3.org/2000/svg">
<circle cx="25.5" cy="25.5" r="25.5" fill="white"/>
<path d="M17.8267 24.3867C19.7467 28.16 22.84 31.24 26.6133 33.1733L29.5467 30.24C29.9067 29.88 30.44 29.76 30.9067 29.92C32.4 30.4133 34.0133 30.68 35.6667 30.68C36.4 30.68 37 31.28 37 32.0133V36.6667C37 37.4 36.4 38 35.6667 38C23.1467 38 13 27.8533 13 15.3333C13 14.6 13.6 14 14.3333 14H19C19.7333 14 20.3333 14.6 20.3333 15.3333C20.3333 17 20.6 18.6 21.0933 20.0933C21.24 20.56 21.1333 21.08 20.76 21.4533L17.8267 24.3867Z" fill="black"/>
</svg>
